<?xml version="1.0" standalone="no"?><!DOCTYPE svg PUBLIC "-//W3C//DTD SVG 1.1//EN" "http://www.w3.org/Graphics/SVG/1.1/DTD/svg11.dtd"><svg t="1550719170425" class="icon" style="" viewBox="0 0 1024 1024" version="1.1" xmlns="http://www.w3.org/2000/svg" p-id="3508" xmlns:xlink="http://www.w3.org/1999/xlink" width="96" height="96"><defs><style type="text/css"></style></defs><path d="M315.008 627.328l81.664 81.664c-80.448 68.096-197.888 173.824-222.144 192.832-61.696 48.384-116.288 63.936-116.288 63.936s15.552-54.592 63.936-116.288C141.184 825.216 246.912 707.776 315.008 627.328zM948.352 294.208l-218.56-218.56c-23.168-23.168-60.672-23.168-83.776 0-23.168 23.168-23.168 60.672 0 83.776l17.408 17.408L344.192 402.304 273.536 331.712c-23.168-23.168-60.672-23.168-83.776 0-23.168 23.168-23.168 60.672 0 83.776l418.752 418.688c23.168 23.168 60.672 23.168 83.776 0 23.168-23.168 23.168-60.672 0-83.776l-70.592-70.592 225.472-319.296 17.408 17.408c23.168 23.168 60.672 23.168 83.776 0S971.52 317.312 948.352 294.208z" p-id="3509" fill="#ffffff"></path></svg>