<svg width="1024" height="1024" xmlns="http://www.w3.org/2000/svg" class="icon">
 <defs>
  <style type="text/css"/>
 </defs>
 <g>
  <title>background</title>
  <rect fill="none" id="canvas_background" height="402" width="582" y="-1" x="-1"/>
 </g>
 <g>
  <title>Layer 1</title>
  <path stroke="null" transform="rotate(-44.549293518066406 510.97198486328125,478.01593017578125) " id="svg_1" fill="#ffffff" d="m349.61458,569.607504l66.901009,64.865181c-65.904835,54.088208 -162.114358,138.067267 -181.985426,153.165197c-50.542769,38.431095 -95.265779,50.783947 -95.265779,50.783947s12.740553,-43.362069 52.377828,-92.366798c15.571787,-19.266382 102.186573,-112.548207 157.972368,-176.447527zm518.849835,-264.595039l-179.049332,-173.600779c-18.979753,-18.402191 -49.703885,-18.402191 -68.631208,0c-18.979753,18.402191 -18.979753,48.191373 0,66.542729l14.26103,13.827061l-261.522128,179.090936l-57.883005,-56.070764c-18.979753,-18.402191 -49.703885,-18.402191 -68.631208,0c-18.979753,18.402191 -18.979753,48.191373 0,66.542729l343.051179,332.561142c18.979753,18.402191 49.703885,18.402191 68.631208,0c18.979753,-18.402191 18.979753,-48.191373 0,-66.542729l-57.830575,-56.070764l184.7118,-253.614726l14.26103,13.827061c18.979753,18.402191 49.703885,18.402191 68.631208,0s18.979753,-48.140538 0,-66.491894z"/>
 </g>
</svg>