<svg width="1024" height="1024" xmlns="http://www.w3.org/2000/svg" class="icon">
 <defs>
  <style type="text/css"/>
 </defs>
 <g>
  <title>background</title>
  <rect fill="none" id="canvas_background" height="402" width="582" y="-1" x="-1"/>
 </g>
 <g>
  <title>Layer 1</title>
  <path stroke="null" id="svg_1" fill="#ffffff" d="m546.536928,248.290003l-384.94364,0c-39.458419,0 -71.742288,36.621544 -71.742288,81.381615l0,374.655767c0,44.76007 32.283869,81.381615 71.742288,81.381615l384.944444,0c39.458419,0 71.742288,-36.621544 71.742288,-81.381615l0,-374.654855c0,-44.76007 -32.284673,-81.382526 -71.743092,-81.382526z"/>
  <path id="svg_2" fill="#ffffff" d="m634.287,602.099l217.254,138.545l0,-455.288l-217.254,138.545l0,178.198z"/>
  <path id="svg_3" fill="#ffffff" d="m869.031,285.356l49.118,0l0,455.289l-49.118,0l0,-455.289z"/>
 </g>
</svg>